<?xml version="1.0" encoding="UTF-8" standalone="no"?>
<svg
   xmlns:dc="http://purl.org/dc/elements/1.1/"
   xmlns:cc="http://creativecommons.org/ns#"
   xmlns:rdf="http://www.w3.org/1999/02/22-rdf-syntax-ns#"
   xmlns:svg="http://www.w3.org/2000/svg"
   xmlns="http://www.w3.org/2000/svg"
   width="60.705032mm"
   height="17.755793mm"
   viewBox="0 0 60.705033 17.755792"
   version="1.1"
   id="svg5133">
  <defs
     id="defs5127" />
  <metadata
     id="metadata5130">
    <rdf:RDF>
      <cc:Work
         rdf:about="">
        <dc:format>image/svg+xml</dc:format>
        <dc:type
           rdf:resource="http://purl.org/dc/dcmitype/StillImage" />
        <dc:title></dc:title>
      </cc:Work>
    </rdf:RDF>
  </metadata>
  <g
     id="g4996">
    <rect
       style="fill:none;fill-opacity:1;stroke:none;stroke-width:0.48815352;stroke-miterlimit:100;stroke-dasharray:none;stroke-opacity:1"
       id="rect4915"
       width="60.705032"
       height="17.755793"
       x="5.0475119e-10"
       y="1.0421753e-09"
       ry="0" />
    <g
       transform="translate(30.575728,-120.93717)"
       id="layer1">
      <g
         style="fill:#333333"
         id="g10"
         transform="matrix(0.35277777,0,0,-0.35277777,-80.187122,285.24958)">
        <path
           id="path16"
           style="fill:#333333;fill-opacity:1;fill-rule:evenodd;stroke:none;stroke-width:0.15056036"
           d="m 167.07464,464.52195 c -13.54139,0 -24.52327,-10.98037 -24.52327,-24.52629 0,-10.83433 7.02666,-20.02754 16.77243,-23.27212 1.22707,-0.22433 1.67423,0.53299 1.67423,1.18341 0,0.58266 -0.0211,2.12441 -0.0331,4.17053 -6.82189,-1.48153 -8.26125,3.28824 -8.26125,3.28824 -1.11565,2.83353 -2.72364,3.58785 -2.72364,3.58785 -2.22679,1.52066 0.16862,1.49054 0.16862,1.49054 2.46167,-0.17314 3.75649,-2.52791 3.75649,-2.52791 2.18763,-3.74744 5.74086,-2.66492 7.13806,-2.03708 0.22283,1.5839 0.85669,2.66492 1.55679,3.2777 -5.44576,0.6203 -11.17157,2.72364 -11.17157,12.12162 0,2.67846 0.95606,4.8661 2.5249,6.58099 -0.25294,0.62031 -1.09458,3.11359 0.2409,6.49066 0,0 2.05815,0.65945 6.74359,-2.51285 1.95579,0.54351 4.0546,0.81452 6.13985,0.82506 2.08376,-0.0108 4.18106,-0.28155 6.13985,-0.82506 4.68243,3.1723 6.73758,2.51285 6.73758,2.51285 1.33849,-3.37707 0.49685,-5.87035 0.24541,-6.49066 1.57185,-1.71489 2.52039,-3.90253 2.52039,-6.58099 0,-9.42207 -5.73485,-11.49529 -11.19718,-12.10205 0.87927,-0.75731 1.6637,-2.25388 1.6637,-4.5424 0,-3.2777 -0.0302,-5.92305 -0.0302,-6.72704 0,-0.65645 0.44264,-1.41978 1.68627,-1.18039 9.73825,3.25059 16.75888,12.43629 16.75888,23.2691 0,13.54592 -10.98187,24.52629 -24.52779,24.52629" />
        <g
           transform="matrix(0.23139162,0,0,0.22618441,199.66291,426.43295)"
           id="g328"
           style="fill:#333333">
          <g
             transform="scale(0.1)"
             id="g330"
             style="fill:#333333">
            <path
               id="path332"
               style="fill:#333333;fill-opacity:1;fill-rule:nonzero;stroke:none"
               d="M 924.973,742.875 H 521.406 c -10.41,0 -18.855,-8.449 -18.855,-18.867 V 526.703 c 0,-10.41 8.445,-18.887 18.855,-18.887 H 678.84 V 262.68 c 0,0 -35.356,-12.051 -133.078,-12.051 -115.301,0 -276.367,42.133 -276.367,396.312 0,354.259 167.714,400.869 325.175,400.869 136.297,0 195.02,-24 232.383,-35.56 11.738,-3.6 22.598,8.09 22.598,18.51 l 45.019,190.64 c 0,4.87 -1.648,10.74 -7.207,14.73 -15.175,10.82 -107.746,62.62 -341.601,62.62 C 276.348,1298.75 0,1184.13 0,633.129 0,82.1094 316.395,0 583.02,0 c 220.757,0 354.683,94.3398 354.683,94.3398 5.52,3.0508 6.113,10.7622 6.113,14.3012 v 615.367 c 0,10.418 -8.433,18.867 -18.843,18.867" />
            <path
               id="path334"
               style="fill:#333333;fill-opacity:1;fill-rule:nonzero;stroke:none"
               d="m 3004.75,1232.73 c 0,10.5 -8.32,18.97 -18.73,18.97 h -227.23 c -10.38,0 -18.82,-8.47 -18.82,-18.97 0,-0.05 0.06,-439.125 0.06,-439.125 h -354.19 v 439.125 c 0,10.5 -8.36,18.97 -18.75,18.97 h -227.22 c -10.34,0 -18.77,-8.47 -18.77,-18.97 V 43.6992 c 0,-10.4883 8.43,-19.0273 18.77,-19.0273 h 227.22 c 10.39,0 18.75,8.539 18.75,19.0273 V 552.289 h 354.19 c 0,0 -0.62,-508.5507 -0.62,-508.5898 0,-10.4883 8.43,-19.0273 18.82,-19.0273 H 2986 c 10.41,0 18.73,8.539 18.75,19.0273 V 1232.73" />
            <path
               id="path336"
               style="fill:#333333;fill-opacity:1;fill-rule:nonzero;stroke:none"
               d="m 1353.76,1076.7 c 0,81.82 -65.6,147.94 -146.53,147.94 -80.85,0 -146.5,-66.12 -146.5,-147.94 0,-81.735 65.65,-148.032 146.5,-148.032 80.93,0 146.53,66.297 146.53,148.032" />
            <path
               id="path338"
               style="fill:#333333;fill-opacity:1;fill-rule:nonzero;stroke:none"
               d="m 1337.51,294.52 c 0,30.464 0,548.859 0,548.859 0,10.422 -8.41,18.941 -18.8,18.941 H 1092.2 c -10.39,0 -19.69,-10.718 -19.69,-21.136 0,0 0,-660.454 0,-786.352 0,-23.1132 14.4,-29.9804 33.04,-29.9804 0,0 96.68,0 204.08,0 22.39,0 27.88,10.9882 27.88,30.3476 0,42.1524 0,207.2698 0,239.3208" />
            <path
               id="path340"
               style="fill:#333333;fill-opacity:1;fill-rule:nonzero;stroke:none"
               d="m 3868.32,860.531 h -225.49 c -10.34,0 -18.76,-8.523 -18.76,-19.011 V 258.5 c 0,0 -57.28,-41.91 -138.59,-41.91 -81.3,0 -102.88,36.89 -102.88,116.5 0,79.707 0,508.43 0,508.43 0,10.488 -8.4,19.011 -18.75,19.011 H 3135 c -10.33,0 -18.79,-8.523 -18.79,-19.011 0,0 0,-310.481 0,-546.93 0,-236.4611 131.79,-294.30875 313.09,-294.30875 148.73,0 268.65,82.16795 268.65,82.16795 0,0 5.71,-43.3008 8.29,-48.4375 2.59,-5.1211 9.32,-10.2929 16.59,-10.2929 l 145.59,0.6406 c 10.33,0 18.79,8.539 18.79,18.9804 l -0.07,798.1802 c 0,10.488 -8.43,19.011 -18.82,19.011" />
            <path
               id="path342"
               style="fill:#333333;fill-opacity:1;fill-rule:nonzero;stroke:none"
               d="m 4395.67,217.309 c -78.21,2.382 -131.26,37.871 -131.26,37.871 v 376.543 c 0,0 52.34,32.078 116.55,37.812 81.2,7.274 159.44,-17.254 159.44,-210.957 0,-204.258 -35.31,-244.566 -144.73,-241.269 z m 88.94,669.933 c -128.07,0 -215.18,-57.14 -215.18,-57.14 v 402.628 c 0,10.5 -8.39,18.97 -18.75,18.97 h -227.87 c -10.36,0 -18.78,-8.47 -18.78,-18.97 V 43.6992 c 0,-10.4883 8.42,-19.0273 18.81,-19.0273 0.02,0 158.05,0 158.1,0 7.12,0 12.51,3.6679 16.49,10.0976 3.93,6.3907 9.6,54.8203 9.6,54.8203 0,0 93.18,-88.30074 269.57,-88.30074 207.08,0 325.84,105.04294 325.84,471.54694 0,366.512 -189.67,414.406 -317.83,414.406" />
            <path
               id="path344"
               style="fill:#333333;fill-opacity:1;fill-rule:nonzero;stroke:none"
               d="m 1990.58,862.426 h -170.45 c 0,0 -0.26,225.134 -0.26,225.184 0,8.52 -4.39,12.78 -14.24,12.78 h -232.28 c -9.03,0 -13.88,-3.97 -13.88,-12.65 V 855.043 c 0,0 -116.4,-28.102 -124.27,-30.371 -7.84,-2.274 -13.61,-9.5 -13.61,-18.125 V 660.32 c 0,-10.515 8.4,-18.996 18.79,-18.996 h 119.09 c 0,0 0,-152.941 0,-351.785 0,-261.289 183.28,-286.96087 306.96,-286.96087 56.51,0 124.11,18.15237 135.27,22.27347 6.75,2.4804 10.67,9.4687 10.67,17.0468 l 0.19,160.8636 c 0,10.488 -8.86,18.976 -18.84,18.976 -9.93,0 -35.34,-4.039 -61.5,-4.039 -83.72,0 -112.09,38.93 -112.09,89.317 0,50.351 -0.01,334.308 -0.01,334.308 h 170.46 c 10.39,0 18.8,8.481 18.8,18.996 v 183.16 c 0,10.497 -8.41,18.946 -18.8,18.946" />
          </g>
        </g>
      </g>
    </g>
  </g>
</svg>
